<svg xmlns="http://www.w3.org/2000/svg" viewBox="0 0 192 192">
  <rect width="192" height="192" rx="32" fill="#111827"/>
  <rect x="36" y="52" width="120" height="104" rx="10" fill="#fff" opacity=".95"/>
  <rect x="36" y="52" width="120" height="32" rx="10" fill="#2563eb"/>
  <rect x="36" y="72" width="120" height="12" fill="#2563eb"/>
  <rect x="60" y="36" width="12" height="28" rx="6" fill="#9ca3af"/>
  <rect x="120" y="36" width="12" height="28" rx="6" fill="#9ca3af"/>
  <rect x="52" y="104" width="16" height="16" rx="3" fill="#059669" opacity=".8"/>
  <rect x="76" y="104" width="16" height="16" rx="3" fill="#d1d5db"/>
  <rect x="100" y="104" width="16" height="16" rx="3" fill="#d1d5db"/>
  <rect x="124" y="104" width="16" height="16" rx="3" fill="#d1d5db"/>
  <rect x="52" y="128" width="16" height="16" rx="3" fill="#059669" opacity=".8"/>
  <rect x="76" y="128" width="16" height="16" rx="3" fill="#fcd34d" opacity=".9"/>
  <rect x="100" y="128" width="16" height="16" rx="3" fill="#d1d5db"/>
  <rect x="124" y="128" width="16" height="16" rx="3" fill="#d1d5db"/>
</svg>
